{
  "accessors": [
    {
      "bufferView": 2,
      "componentType": 5126,
      "count": 526,
      "max": [
        0.7205166220664978,
        1.2464244365692139,
        1.0215473175048828
      ],
      "min": [
        -0.7205166220664978,
        -1.7459453344345093,
        0.12103009223937988
      ],
      "type": "VEC3"
    },
    {
      "bufferView": 2,
      "byteOffset": 6312,
      "componentType": 5126,
      "count": 526,
      "max": [
        0.9858275651931763,
        0.960551381111145,
        0.9880759716033936
      ],
      "min": [
        -0.9858275651931763,
        -1.0,
        -0.9836607575416565
      ],
      "type": "VEC3"
    },
    {
      "bufferView": 1,
      "componentType": 5126,
      "count": 526,
      "max": [
        0.9731765389442444,
        0.9729137420654297
      ],
      "min": [
        0.13494721055030823,
        0.03016909956932068
      ],
      "type": "VEC2"
    },
    {
      "bufferView": 0,
      "componentType": 5125,
      "count": 1860,
      "type": "SCALAR"
    },
    {
      "bufferView": 2,
      "byteOffset": 12624,
      "componentType": 5126,
      "count": 41231,
      "max": [
        3.0634560585021973,
        3.523637294769287,
        5.491861343383789
      ],
      "min": [
        -3.060096025466919,
        -2.613557815551758,
        -0.11580722033977509
      ],
      "type": "VEC3"
    },
    {
      "bufferView": 2,
      "byteOffset": 507396,
      "componentType": 5126,
      "count": 41231,
      "max": [
        1.0,
        1.0,
        0.9999978542327881
      ],
      "min": [
        -1.0,
        -1.0,
        -1.0
      ],
      "type": "VEC3"
    },
    {
      "bufferView": 3,
      "componentType": 5126,
      "count": 41231,
      "max": [
        1.0,
        1.0,
        1.0,
        1.0
      ],
      "min": [
        -1.0,
        -1.0,
        -0.9999998211860657,
        -1.0
      ],
      "type": "VEC4"
    },
    {
      "bufferView": 1,
      "byteOffset": 4208,
      "componentType": 5126,
      "count": 41231,
      "max": [
        0.9993044137954712,
        0.9993041753768921
      ],
      "min": [
        0.0006955501739867032,
        0.0006958055309951305
      ],
      "type": "VEC2"
    },
    {
      "bufferView": 0,
      "byteOffset": 7440,
      "componentType": 5125,
      "count": 185445,
      "type": "SCALAR"
    },
    {
      "bufferView": 2,
      "byteOffset": 1002168,
      "componentType": 5126,
      "count": 32,
      "max": [
        0.9695989489555359,
        1.382791519165039,
        2.263685703277588
      ],
      "min": [
        -0.9744173884391785,
        -0.7086697816848755,
        1.77927827835083
      ],
      "type": "VEC3"
    },
    {
      "bufferView": 2,
      "byteOffset": 1002552,
      "componentType": 5126,
      "count": 32,
      "max": [
        0.7436884045600891,
        0.7358675003051758,
        0.4657021462917328
      ],
      "min": [
        0.6132998466491699,
        -0.7755696177482605,
        -0.4566390812397003
      ],
      "type": "VEC3"
    },
    {
      "bufferView": 1,
      "byteOffset": 334056,
      "componentType": 5126,
      "count": 32,
      "max": [
        0.9893719553947449,
        0.8329789042472839
      ],
      "min": [
        0.010628115385770798,
        0.010628115385770798
      ],
      "type": "VEC2"
    },
    {
      "bufferView": 0,
      "byteOffset": 749220,
      "componentType": 5125,
      "count": 48,
      "type": "SCALAR"
    },
    {
      "bufferView": 2,
      "byteOffset": 1002936,
      "componentType": 5126,
      "count": 65533,
      "max": [
        2.90995192527771,
        3.402951717376709,
        5.379080295562744
      ],
      "min": [
        -1.5545545816421509,
        -1.463350772857666,
        -0.5061578750610352
      ],
      "type": "VEC3"
    },
    {
      "bufferView": 2,
      "byteOffset": 1789332,
      "componentType": 5126,
      "count": 65533,
      "max": [
        1.0,
        0.9998725652694702,
        1.0
      ],
      "min": [
        -1.0,
        -0.9998705387115479,
        -1.0
      ],
      "type": "VEC3"
    },
    {
      "bufferView": 1,
      "byteOffset": 334312,
      "componentType": 5126,
      "count": 65533,
      "max": [
        0.9951609969139099,
        0.9963095188140869
      ],
      "min": [
        0.00048177590360864997,
        0.0004817766312044114
      ],
      "type": "VEC2"
    },
    {
      "bufferView": 0,
      "byteOffset": 749412,
      "componentType": 5125,
      "count": 194301,
      "type": "SCALAR"
    },
    {
      "bufferView": 2,
      "byteOffset": 2575728,
      "componentType": 5126,
      "count": 65532,
      "max": [
        -0.02788066864013672,
        3.3860838413238525,
        5.371208667755127
      ],
      "min": [
        -2.8704116344451904,
        -1.9535249471664429,
        1.1708120107650757
      ],
      "type": "VEC3"
    },
    {
      "bufferView": 2,
      "byteOffset": 3362112,
      "componentType": 5126,
      "count": 65532,
      "max": [
        0.9999186992645264,
        0.9999951124191284,
        0.999627947807312
      ],
      "min": [
        -0.9995855093002319,
        -0.9988383054733276,
        -0.9996285438537598
      ],
      "type": "VEC3"
    },
    {
      "bufferView": 1,
      "byteOffset": 858576,
      "componentType": 5126,
      "count": 65532,
      "max": [
        0.9952183961868286,
        0.9949502944946289
      ],
      "min": [
        0.00048177590360864997,
        0.0004817766312044114
      ],
      "type": "VEC2"
    },
    {
      "bufferView": 0,
      "byteOffset": 1526616,
      "componentType": 5125,
      "count": 195471,
      "type": "SCALAR"
    },
    {
      "bufferView": 2,
      "byteOffset": 4148496,
      "componentType": 5126,
      "count": 65532,
      "max": [
        2.710876941680908,
        0.36748290061950684,
        5.480409145355225
      ],
      "min": [
        -2.943897247314453,
        -2.526191234588623,
        1.1759113073349
      ],
      "type": "VEC3"
    },
    {
      "bufferView": 2,
      "byteOffset": 4934880,
      "componentType": 5126,
      "count": 65532,
      "max": [
        0.9998016357421875,
        0.9999737739562988,
        0.9997543096542358
      ],
      "min": [
        -0.9995855093002319,
        -0.9999634027481079,
        -0.9992622137069702
      ],
      "type": "VEC3"
    },
    {
      "bufferView": 1,
      "byteOffset": 1382832,
      "componentType": 5126,
      "count": 65532,
      "max": [
        0.9960096478462219,
        0.9962533116340637
      ],
      "min": [
        0.00048177590360864997,
        0.0004817766312044114
      ],
      "type": "VEC2"
    },
    {
      "bufferView": 0,
      "byteOffset": 2308500,
      "componentType": 5125,
      "count": 196263,
      "type": "SCALAR"
    },
    {
      "bufferView": 2,
      "byteOffset": 5721264,
      "componentType": 5126,
      "count": 65532,
      "max": [
        2.9502644538879395,
        1.9208229780197144,
        5.486743450164795
      ],
      "min": [
        -1.8563416004180908,
        -2.525087356567383,
        -0.5797032117843628
      ],
      "type": "VEC3"
    },
    {
      "bufferView": 2,
      "byteOffset": 6507648,
      "componentType": 5126,
      "count": 65532,
      "max": [
        1.0,
        1.0,
        1.0
      ],
      "min": [
        -1.0,
        -1.0,
        -1.0
      ],
      "type": "VEC3"
    },
    {
      "bufferView": 1,
      "byteOffset": 1907088,
      "componentType": 5126,
      "count": 65532,
      "max": [
        0.9971960783004761,
        0.9962357878684998
      ],
      "min": [
        0.00048177590360864997,
        0.0004817766312044114
      ],
      "type": "VEC2"
    },
    {
      "bufferView": 0,
      "byteOffset": 3093552,
      "componentType": 5125,
      "count": 215805,
      "type": "SCALAR"
    },
    {
      "bufferView": 2,
      "byteOffset": 7294032,
      "componentType": 5126,
      "count": 65532,
      "max": [
        1.2402302026748657,
        1.48862886428833,
        0.4473539888858795
      ],
      "min": [
        -1.2402307987213135,
        -1.4886283874511719,
        -0.4913342595100403
      ],
      "type": "VEC3"
    },
    {
      "bufferView": 2,
      "byteOffset": 8080416,
      "componentType": 5126,
      "count": 65532,
      "max": [
        0.9998713731765747,
        0.9997955560684204,
        0.9983423948287964
      ],
      "min": [
        -0.9998713731765747,
        -0.9997955560684204,
        -0.9997479915618896
      ],
      "type": "VEC3"
    },
    {
      "bufferView": 1,
      "byteOffset": 2431344,
      "componentType": 5126,
      "count": 65532,
      "max": [
        0.9995182156562805,
        0.9995182156562805
      ],
      "min": [
        0.00048177590360864997,
        0.0004817766312044114
      ],
      "type": "VEC2"
    },
    {
      "bufferView": 0,
      "byteOffset": 3956772,
      "componentType": 5125,
      "count": 170376,
      "type": "SCALAR"
    },
    {
      "bufferView": 2,
      "byteOffset": 8866800,
      "componentType": 5126,
      "count": 65532,
      "max": [
        2.7105751037597656,
        3.148174524307251,
        4.265456676483154
      ],
      "min": [
        -2.7069740295410156,
        -2.352954864501953,
        -0.5044233798980713
      ],
      "type": "VEC3"
    },
    {
      "bufferView": 2,
      "byteOffset": 9653184,
      "componentType": 5126,
      "count": 65532,
      "max": [
        1.0,
        0.9999140501022339,
        1.0
      ],
      "min": [
        -1.0,
        -1.0,
        -1.0
      ],
      "type": "VEC3"
    },
    {
      "bufferView": 1,
      "byteOffset": 2955600,
      "componentType": 5126,
      "count": 65532,
      "max": [
        0.9964184761047363,
        0.9964173436164856
      ],
      "min": [
        0.00048177590360864997,
        0.0004817766312044114
      ],
      "type": "VEC2"
    },
    {
      "bufferView": 0,
      "byteOffset": 4638276,
      "componentType": 5125,
      "count": 189561,
      "type": "SCALAR"
    },
    {
      "bufferView": 2,
      "byteOffset": 10439568,
      "componentType": 5126,
      "count": 65534,
      "max": [
        1.2220358848571777,
        1.9972478151321411,
        1.291854977607727
      ],
      "min": [
        -1.2220814228057861,
        -1.463487982749939,
        -0.5061578750610352
      ],
      "type": "VEC3"
    },
    {
      "bufferView": 2,
      "byteOffset": 11225976,
      "componentType": 5126,
      "count": 65534,
      "max": [
        1.0,
        1.0,
        1.0
      ],
      "min": [
        -1.0,
        -1.0,
        -1.0
      ],
      "type": "VEC3"
    },
    {
      "bufferView": 1,
      "byteOffset": 3479856,
      "componentType": 5126,
      "count": 65534,
      "max": [
        0.9994736313819885,
        0.999502956867218
      ],
      "min": [
        0.00048177590360864997,
        0.0004817766312044114
      ],
      "type": "VEC2"
    },
    {
      "bufferView": 0,
      "byteOffset": 5396520,
      "componentType": 5125,
      "count": 194622,
      "type": "SCALAR"
    },
    {
      "bufferView": 2,
      "byteOffset": 12012384,
      "componentType": 5126,
      "count": 56998,
      "max": [
        0.8129021525382996,
        1.9241894483566284,
        1.6403443813323975
      ],
      "min": [
        -0.9894202947616577,
        -1.7771668434143066,
        -0.5061578750610352
      ],
      "type": "VEC3"
    },
    {
      "bufferView": 2,
      "byteOffset": 12696360,
      "componentType": 5126,
      "count": 56998,
      "max": [
        1.0,
        1.0,
        1.0
      ],
      "min": [
        -1.0,
        -1.0,
        -1.0
      ],
      "type": "VEC3"
    },
    {
      "bufferView": 1,
      "byteOffset": 4004128,
      "componentType": 5126,
      "count": 56998,
      "max": [
        0.9994874000549316,
        0.9995059370994568
      ],
      "min": [
        0.00048177590360864997,
        0.0004817766312044114
      ],
      "type": "VEC2"
    },
    {
      "bufferView": 0,
      "byteOffset": 6175008,
      "componentType": 5125,
      "count": 173889,
      "type": "SCALAR"
    }
  ],
  "asset": {
    "extras": {
      "author": "CG Boost (https://sketchfab.com/zreinhardt)",
      "license": "CC-BY-4.0 (http://creativecommons.org/licenses/by/4.0/)",
      "source": "https://sketchfab.com/3d-models/flying-trabant-final-takeoff-44de9112ce564d35be97a06c302a2fe3",
      "title": "Flying Trabant (Final Takeoff)"
    },
    "generator": "Sketchfab-12.66.0",
    "version": "2.0"
  },
  "bufferViews": [
    {
      "buffer": 0,
      "byteLength": 6870564,
      "name": "floatBufferViews",
      "target": 34963
    },
    {
      "buffer": 0,
      "byteLength": 4460112,
      "byteOffset": 6870564,
      "byteStride": 8,
      "name": "floatBufferViews",
      "target": 34962
    },
    {
      "buffer": 0,
      "byteLength": 13380336,
      "byteOffset": 11330676,
      "byteStride": 12,
      "name": "floatBufferViews",
      "target": 34962
    },
    {
      "buffer": 0,
      "byteLength": 659696,
      "byteOffset": 24711012,
      "byteStride": 16,
      "name": "floatBufferViews",
      "target": 34962
    }
  ],
  "buffers": [
    {
      "byteLength": 25370708,
      "uri": "scene.bin"
    }
  ],
  "extensionsRequired": [
    "KHR_materials_pbrSpecularGlossiness"
  ],
  "extensionsUsed": [
    "KHR_materials_pbrSpecularGlossiness"
  ],
  "images": [
    {
      "uri": "textures/windows_diffuse.jpeg"
    },
    {
      "uri": "textures/windows_specularGlossiness.png"
    },
    {
      "uri": "textures/big_parts_diffuse.jpeg"
    },
    {
      "uri": "textures/big_parts_specularGlossiness.png"
    },
    {
      "uri": "textures/big_parts_normal.jpeg"
    },
    {
      "uri": "textures/fire_diffuse.png"
    },
    {
      "uri": "textures/fire_emissive.jpeg"
    },
    {
      "uri": "textures/small_parts_specularGlossiness.png"
    }
  ],
  "materials": [
    {
      "doubleSided": true,
      "extensions": {
        "KHR_materials_pbrSpecularGlossiness": {
          "diffuseFactor": [
            1.0,
            1.0,
            1.0,
            1.0
          ],
          "diffuseTexture": {
            "index": 0
          },
          "glossinessFactor": 1.0,
          "specularFactor": [
            0.28,
            0.28,
            0.28
          ],
          "specularGlossinessTexture": {
            "index": 1
          }
        }
      },
      "name": "windows"
    },
    {
      "doubleSided": true,
      "extensions": {
        "KHR_materials_pbrSpecularGlossiness": {
          "diffuseFactor": [
            1.0,
            1.0,
            1.0,
            1.0
          ],
          "diffuseTexture": {
            "index": 2
          },
          "glossinessFactor": 1.0,
          "specularFactor": [
            0.12,
            0.12,
            0.12
          ],
          "specularGlossinessTexture": {
            "index": 3
          }
        }
      },
      "name": "big_parts",
      "normalTexture": {
        "index": 4
      }
    },
    {
      "alphaMode": "BLEND",
      "doubleSided": true,
      "emissiveFactor": [
        1.0,
        1.0,
        1.0
      ],
      "emissiveTexture": {
        "index": 6
      },
      "extensions": {
        "KHR_materials_pbrSpecularGlossiness": {
          "diffuseFactor": [
            1.0,
            1.0,
            1.0,
            1.0
          ],
          "diffuseTexture": {
            "index": 5
          },
          "glossinessFactor": 0.4,
          "specularFactor": [
            0.0,
            0.0,
            0.0
          ]
        }
      },
      "name": "fire"
    },
    {
      "doubleSided": true,
      "extensions": {
        "KHR_materials_pbrSpecularGlossiness": {
          "diffuseFactor": [
            1.0,
            1.0,
            1.0,
            1.0
          ],
          "diffuseTexture": {
            "index": 0
          },
          "glossinessFactor": 0.8200000000000001,
          "specularFactor": [
            0.1,
            0.1,
            0.1
          ],
          "specularGlossinessTexture": {
            "index": 7
          }
        }
      },
      "name": "small_parts"
    }
  ],
  "meshes": [
    {
      "name": "car_windows_windows_0",
      "primitives": [
        {
          "attributes": {
            "NORMAL": 1,
            "POSITION": 0,
            "TEXCOORD_0": 2
          },
          "indices": 3,
          "material": 0,
          "mode": 4
        }
      ]
    },
    {
      "name": "car_big_parts_low_big_parts_0",
      "primitives": [
        {
          "attributes": {
            "NORMAL": 5,
            "POSITION": 4,
            "TANGENT": 6,
            "TEXCOORD_0": 7
          },
          "indices": 8,
          "material": 1,
          "mode": 4
        }
      ]
    },
    {
      "name": "car_fire_fire_0",
      "primitives": [
        {
          "attributes": {
            "NORMAL": 10,
            "POSITION": 9,
            "TEXCOORD_0": 11
          },
          "indices": 12,
          "material": 2,
          "mode": 4
        }
      ]
    },
    {
      "name": "car_small_parts_low_small_parts_0",
      "primitives": [
        {
          "attributes": {
            "NORMAL": 14,
            "POSITION": 13,
            "TEXCOORD_0": 15
          },
          "indices": 16,
          "material": 3,
          "mode": 4
        }
      ]
    },
    {
      "name": "car_small_parts_low_small_parts_0",
      "primitives": [
        {
          "attributes": {
            "NORMAL": 18,
            "POSITION": 17,
            "TEXCOORD_0": 19
          },
          "indices": 20,
          "material": 3,
          "mode": 4
        }
      ]
    },
    {
      "name": "car_small_parts_low_small_parts_0",
      "primitives": [
        {
          "attributes": {
            "NORMAL": 22,
            "POSITION": 21,
            "TEXCOORD_0": 23
          },
          "indices": 24,
          "material": 3,
          "mode": 4
        }
      ]
    },
    {
      "name": "car_small_parts_low_small_parts_0",
      "primitives": [
        {
          "attributes": {
            "NORMAL": 26,
            "POSITION": 25,
            "TEXCOORD_0": 27
          },
          "indices": 28,
          "material": 3,
          "mode": 4
        }
      ]
    },
    {
      "name": "car_small_parts_low_small_parts_0",
      "primitives": [
        {
          "attributes": {
            "NORMAL": 30,
            "POSITION": 29,
            "TEXCOORD_0": 31
          },
          "indices": 32,
          "material": 3,
          "mode": 4
        }
      ]
    },
    {
      "name": "car_small_parts_low_small_parts_0",
      "primitives": [
        {
          "attributes": {
            "NORMAL": 34,
            "POSITION": 33,
            "TEXCOORD_0": 35
          },
          "indices": 36,
          "material": 3,
          "mode": 4
        }
      ]
    },
    {
      "name": "car_small_parts_low_small_parts_0",
      "primitives": [
        {
          "attributes": {
            "NORMAL": 38,
            "POSITION": 37,
            "TEXCOORD_0": 39
          },
          "indices": 40,
          "material": 3,
          "mode": 4
        }
      ]
    },
    {
      "name": "car_small_parts_low_small_parts_0",
      "primitives": [
        {
          "attributes": {
            "NORMAL": 42,
            "POSITION": 41,
            "TEXCOORD_0": 43
          },
          "indices": 44,
          "material": 3,
          "mode": 4
        }
      ]
    }
  ],
  "nodes": [
    {
      "children": [
        1
      ],
      "matrix": [
        1.0,
        0.0,
        0.0,
        0.0,
        0.0,
        2.220446049250313e-16,
        -1.0,
        0.0,
        0.0,
        1.0,
        2.220446049250313e-16,
        0.0,
        0.0,
        0.0,
        0.0,
        1.0
      ],
      "name": "Sketchfab_model"
    },
    {
      "children": [
        2
      ],
      "matrix": [
        1.0,
        0.0,
        0.0,
        0.0,
        0.0,
        0.0,
        1.0,
        0.0,
        0.0,
        -1.0,
        0.0,
        0.0,
        0.0,
        0.0,
        0.0,
        1.0
      ],
      "name": "b7737dabe9a24efa8ca9b24db2683efa.fbx"
    },
    {
      "children": [
        3,
        5,
        7,
        9
      ],
      "name": "RootNode"
    },
    {
      "children": [
        4
      ],
      "matrix": [
        100.0,
        0.0,
        0.0,
        0.0,
        0.0,
        -1.629206793918314e-05,
        -99.99999999999868,
        0.0,
        0.0,
        99.99999999999868,
        -1.629206793918314e-05,
        0.0,
        0.0,
        0.0,
        0.0,
        1.0
      ],
      "name": "car_windows"
    },
    {
      "mesh": 0,
      "name": "car_windows_windows_0"
    },
    {
      "children": [
        6
      ],
      "matrix": [
        100.0,
        0.0,
        0.0,
        0.0,
        0.0,
        -1.629206793918314e-05,
        -99.99999999999868,
        0.0,
        0.0,
        99.99999999999868,
        -1.629206793918314e-05,
        0.0,
        0.0,
        0.0,
        0.0,
        1.0
      ],
      "name": "car_big_parts_low"
    },
    {
      "mesh": 1,
      "name": "car_big_parts_low_big_parts_0"
    },
    {
      "children": [
        8
      ],
      "matrix": [
        100.0,
        0.0,
        0.0,
        0.0,
        0.0,
        -1.629206793918314e-05,
        -99.99999999999868,
        0.0,
        0.0,
        99.99999999999868,
        -1.629206793918314e-05,
        0.0,
        0.0,
        -2.384185791015625e-05,
        -1.1920928955078125e-05,
        1.0
      ],
      "name": "car_fire"
    },
    {
      "mesh": 2,
      "name": "car_fire_fire_0"
    },
    {
      "children": [
        10,
        11,
        12,
        13,
        14,
        15,
        16,
        17
      ],
      "matrix": [
        100.0,
        0.0,
        0.0,
        0.0,
        0.0,
        -1.629206793918314e-05,
        -99.99999999999868,
        0.0,
        0.0,
        99.99999999999868,
        -1.629206793918314e-05,
        0.0,
        0.0,
        0.0,
        0.0,
        1.0
      ],
      "name": "car_small_parts_low"
    },
    {
      "mesh": 3,
      "name": "car_small_parts_low_small_parts_0"
    },
    {
      "mesh": 4,
      "name": "car_small_parts_low_small_parts_0"
    },
    {
      "mesh": 5,
      "name": "car_small_parts_low_small_parts_0"
    },
    {
      "mesh": 6,
      "name": "car_small_parts_low_small_parts_0"
    },
    {
      "mesh": 7,
      "name": "car_small_parts_low_small_parts_0"
    },
    {
      "mesh": 8,
      "name": "car_small_parts_low_small_parts_0"
    },
    {
      "mesh": 9,
      "name": "car_small_parts_low_small_parts_0"
    },
    {
      "mesh": 10,
      "name": "car_small_parts_low_small_parts_0"
    }
  ],
  "samplers": [
    {
      "magFilter": 9729,
      "minFilter": 9987,
      "wrapS": 10497,
      "wrapT": 10497
    }
  ],
  "scene": 0,
  "scenes": [
    {
      "name": "Sketchfab_Scene",
      "nodes": [
        0
      ]
    }
  ],
  "textures": [
    {
      "sampler": 0,
      "source": 0
    },
    {
      "sampler": 0,
      "source": 1
    },
    {
      "sampler": 0,
      "source": 2
    },
    {
      "sampler": 0,
      "source": 3
    },
    {
      "sampler": 0,
      "source": 4
    },
    {
      "sampler": 0,
      "source": 5
    },
    {
      "sampler": 0,
      "source": 6
    },
    {
      "sampler": 0,
      "source": 7
    }
  ]
}
